<mxfile host="app.diagrams.net" agent="Mozilla/5.0 (Windows NT 10.0; Win64; x64) AppleWebKit/537.36 (KHTML, like Gecko) Chrome/129.0.0.0 Safari/537.36" version="24.7.17">
  <diagram name="PÃ¡gina-1" id="bJ0KBdlIUZLLZwcX1AwN">
    <mxGraphModel dx="2345" dy="1838" grid="1" gridSize="10" guides="1" tooltips="1" connect="1" arrows="1" fold="1" page="1" pageScale="1" pageWidth="827" pageHeight="1169" math="0" shadow="0">
      <root>
        <mxCell id="0" />
        <mxCell id="1" parent="0" />
        <mxCell id="lddae44WPFYO3zYL8UWN-17" style="edgeStyle=orthogonalEdgeStyle;rounded=0;orthogonalLoop=1;jettySize=auto;html=1;entryX=0.5;entryY=0;entryDx=0;entryDy=0;" edge="1" parent="1" source="lddae44WPFYO3zYL8UWN-1" target="lddae44WPFYO3zYL8UWN-15">
          <mxGeometry relative="1" as="geometry" />
        </mxCell>
        <mxCell id="lddae44WPFYO3zYL8UWN-1" value="Sucursal" style="html=1;whiteSpace=wrap;" vertex="1" parent="1">
          <mxGeometry x="150" y="50" width="110" height="50" as="geometry" />
        </mxCell>
        <mxCell id="lddae44WPFYO3zYL8UWN-9" style="edgeStyle=orthogonalEdgeStyle;rounded=0;orthogonalLoop=1;jettySize=auto;html=1;entryX=1;entryY=0.5;entryDx=0;entryDy=0;" edge="1" parent="1" source="lddae44WPFYO3zYL8UWN-2" target="lddae44WPFYO3zYL8UWN-8">
          <mxGeometry relative="1" as="geometry" />
        </mxCell>
        <mxCell id="lddae44WPFYO3zYL8UWN-38" style="edgeStyle=orthogonalEdgeStyle;rounded=0;orthogonalLoop=1;jettySize=auto;html=1;exitX=0.5;exitY=1;exitDx=0;exitDy=0;entryX=0.5;entryY=0;entryDx=0;entryDy=0;" edge="1" parent="1" source="lddae44WPFYO3zYL8UWN-2" target="lddae44WPFYO3zYL8UWN-37">
          <mxGeometry relative="1" as="geometry" />
        </mxCell>
        <mxCell id="lddae44WPFYO3zYL8UWN-2" value="Empleado" style="html=1;whiteSpace=wrap;" vertex="1" parent="1">
          <mxGeometry x="480" y="50" width="110" height="50" as="geometry" />
        </mxCell>
        <mxCell id="lddae44WPFYO3zYL8UWN-44" style="edgeStyle=orthogonalEdgeStyle;rounded=0;orthogonalLoop=1;jettySize=auto;html=1;entryX=0;entryY=0.5;entryDx=0;entryDy=0;" edge="1" parent="1" source="lddae44WPFYO3zYL8UWN-3" target="lddae44WPFYO3zYL8UWN-43">
          <mxGeometry relative="1" as="geometry" />
        </mxCell>
        <mxCell id="lddae44WPFYO3zYL8UWN-3" value="Venta" style="html=1;whiteSpace=wrap;" vertex="1" parent="1">
          <mxGeometry x="480" y="230" width="110" height="50" as="geometry" />
        </mxCell>
        <mxCell id="lddae44WPFYO3zYL8UWN-31" style="edgeStyle=orthogonalEdgeStyle;rounded=0;orthogonalLoop=1;jettySize=auto;html=1;entryX=1;entryY=0.5;entryDx=0;entryDy=0;" edge="1" parent="1" source="lddae44WPFYO3zYL8UWN-4" target="lddae44WPFYO3zYL8UWN-30">
          <mxGeometry relative="1" as="geometry" />
        </mxCell>
        <mxCell id="lddae44WPFYO3zYL8UWN-50" style="edgeStyle=orthogonalEdgeStyle;rounded=0;orthogonalLoop=1;jettySize=auto;html=1;entryX=0;entryY=0.5;entryDx=0;entryDy=0;" edge="1" parent="1" source="lddae44WPFYO3zYL8UWN-4" target="lddae44WPFYO3zYL8UWN-49">
          <mxGeometry relative="1" as="geometry" />
        </mxCell>
        <mxCell id="lddae44WPFYO3zYL8UWN-4" value="Productos" style="html=1;whiteSpace=wrap;" vertex="1" parent="1">
          <mxGeometry x="150" y="400" width="110" height="50" as="geometry" />
        </mxCell>
        <mxCell id="lddae44WPFYO3zYL8UWN-5" value="Categoria de produccto" style="html=1;whiteSpace=wrap;" vertex="1" parent="1">
          <mxGeometry x="-90" y="400" width="110" height="50" as="geometry" />
        </mxCell>
        <mxCell id="lddae44WPFYO3zYL8UWN-72" style="edgeStyle=orthogonalEdgeStyle;rounded=0;orthogonalLoop=1;jettySize=auto;html=1;entryX=0.5;entryY=0;entryDx=0;entryDy=0;" edge="1" parent="1" source="lddae44WPFYO3zYL8UWN-6" target="lddae44WPFYO3zYL8UWN-71">
          <mxGeometry relative="1" as="geometry" />
        </mxCell>
        <mxCell id="lddae44WPFYO3zYL8UWN-6" value="Factura" style="html=1;whiteSpace=wrap;" vertex="1" parent="1">
          <mxGeometry x="740" y="230" width="110" height="50" as="geometry" />
        </mxCell>
        <mxCell id="lddae44WPFYO3zYL8UWN-10" style="edgeStyle=orthogonalEdgeStyle;rounded=0;orthogonalLoop=1;jettySize=auto;html=1;entryX=1;entryY=0.5;entryDx=0;entryDy=0;" edge="1" parent="1" source="lddae44WPFYO3zYL8UWN-8" target="lddae44WPFYO3zYL8UWN-1">
          <mxGeometry relative="1" as="geometry" />
        </mxCell>
        <mxCell id="lddae44WPFYO3zYL8UWN-8" value="" style="rhombus;" vertex="1" parent="1">
          <mxGeometry x="350" y="60" width="30" height="30" as="geometry" />
        </mxCell>
        <mxCell id="lddae44WPFYO3zYL8UWN-11" value="Trabaja en" style="text;html=1;align=center;verticalAlign=middle;resizable=0;points=[];autosize=1;strokeColor=none;fillColor=none;" vertex="1" parent="1">
          <mxGeometry x="320" y="18" width="80" height="30" as="geometry" />
        </mxCell>
        <mxCell id="lddae44WPFYO3zYL8UWN-12" value="1" style="text;html=1;align=center;verticalAlign=middle;resizable=0;points=[];autosize=1;strokeColor=none;fillColor=none;" vertex="1" parent="1">
          <mxGeometry x="260" y="40" width="30" height="30" as="geometry" />
        </mxCell>
        <mxCell id="lddae44WPFYO3zYL8UWN-13" value="N" style="text;html=1;align=center;verticalAlign=middle;resizable=0;points=[];autosize=1;strokeColor=none;fillColor=none;" vertex="1" parent="1">
          <mxGeometry x="450" y="40" width="30" height="30" as="geometry" />
        </mxCell>
        <mxCell id="lddae44WPFYO3zYL8UWN-24" style="edgeStyle=orthogonalEdgeStyle;rounded=0;orthogonalLoop=1;jettySize=auto;html=1;entryX=0.5;entryY=0;entryDx=0;entryDy=0;" edge="1" parent="1" source="lddae44WPFYO3zYL8UWN-14" target="lddae44WPFYO3zYL8UWN-23">
          <mxGeometry relative="1" as="geometry" />
        </mxCell>
        <mxCell id="lddae44WPFYO3zYL8UWN-14" value="Catalogo" style="html=1;whiteSpace=wrap;" vertex="1" parent="1">
          <mxGeometry x="150" y="240" width="110" height="50" as="geometry" />
        </mxCell>
        <mxCell id="lddae44WPFYO3zYL8UWN-19" style="edgeStyle=orthogonalEdgeStyle;rounded=0;orthogonalLoop=1;jettySize=auto;html=1;" edge="1" parent="1" source="lddae44WPFYO3zYL8UWN-15" target="lddae44WPFYO3zYL8UWN-14">
          <mxGeometry relative="1" as="geometry" />
        </mxCell>
        <mxCell id="lddae44WPFYO3zYL8UWN-15" value="" style="rhombus;" vertex="1" parent="1">
          <mxGeometry x="190" y="150" width="30" height="30" as="geometry" />
        </mxCell>
        <mxCell id="lddae44WPFYO3zYL8UWN-20" value="Tiene" style="text;html=1;align=center;verticalAlign=middle;resizable=0;points=[];autosize=1;strokeColor=none;fillColor=none;" vertex="1" parent="1">
          <mxGeometry x="95" y="148" width="50" height="30" as="geometry" />
        </mxCell>
        <mxCell id="lddae44WPFYO3zYL8UWN-21" value="1" style="text;html=1;align=center;verticalAlign=middle;resizable=0;points=[];autosize=1;strokeColor=none;fillColor=none;" vertex="1" parent="1">
          <mxGeometry x="215" y="208" width="30" height="30" as="geometry" />
        </mxCell>
        <mxCell id="lddae44WPFYO3zYL8UWN-22" value="1" style="text;html=1;align=center;verticalAlign=middle;resizable=0;points=[];autosize=1;strokeColor=none;fillColor=none;" vertex="1" parent="1">
          <mxGeometry x="225" y="98" width="30" height="30" as="geometry" />
        </mxCell>
        <mxCell id="lddae44WPFYO3zYL8UWN-26" style="edgeStyle=orthogonalEdgeStyle;rounded=0;orthogonalLoop=1;jettySize=auto;html=1;entryX=0.5;entryY=0;entryDx=0;entryDy=0;" edge="1" parent="1" source="lddae44WPFYO3zYL8UWN-23" target="lddae44WPFYO3zYL8UWN-4">
          <mxGeometry relative="1" as="geometry" />
        </mxCell>
        <mxCell id="lddae44WPFYO3zYL8UWN-23" value="" style="rhombus;" vertex="1" parent="1">
          <mxGeometry x="190" y="320" width="30" height="30" as="geometry" />
        </mxCell>
        <mxCell id="lddae44WPFYO3zYL8UWN-27" value="Contiene" style="text;html=1;align=center;verticalAlign=middle;resizable=0;points=[];autosize=1;strokeColor=none;fillColor=none;" vertex="1" parent="1">
          <mxGeometry x="85" y="320" width="70" height="30" as="geometry" />
        </mxCell>
        <mxCell id="lddae44WPFYO3zYL8UWN-28" value="N" style="text;html=1;align=center;verticalAlign=middle;resizable=0;points=[];autosize=1;strokeColor=none;fillColor=none;" vertex="1" parent="1">
          <mxGeometry x="225" y="368" width="30" height="30" as="geometry" />
        </mxCell>
        <mxCell id="lddae44WPFYO3zYL8UWN-29" value="1..N" style="text;html=1;align=center;verticalAlign=middle;resizable=0;points=[];autosize=1;strokeColor=none;fillColor=none;" vertex="1" parent="1">
          <mxGeometry x="205" y="288" width="50" height="30" as="geometry" />
        </mxCell>
        <mxCell id="lddae44WPFYO3zYL8UWN-32" style="edgeStyle=orthogonalEdgeStyle;rounded=0;orthogonalLoop=1;jettySize=auto;html=1;entryX=1;entryY=0.5;entryDx=0;entryDy=0;" edge="1" parent="1" source="lddae44WPFYO3zYL8UWN-30" target="lddae44WPFYO3zYL8UWN-5">
          <mxGeometry relative="1" as="geometry" />
        </mxCell>
        <mxCell id="lddae44WPFYO3zYL8UWN-30" value="" style="rhombus;" vertex="1" parent="1">
          <mxGeometry x="80" y="410" width="30" height="30" as="geometry" />
        </mxCell>
        <mxCell id="lddae44WPFYO3zYL8UWN-33" value="Pertenece" style="text;html=1;align=center;verticalAlign=middle;resizable=0;points=[];autosize=1;strokeColor=none;fillColor=none;" vertex="1" parent="1">
          <mxGeometry x="40" y="468" width="80" height="30" as="geometry" />
        </mxCell>
        <mxCell id="lddae44WPFYO3zYL8UWN-34" value="1" style="text;html=1;align=center;verticalAlign=middle;resizable=0;points=[];autosize=1;strokeColor=none;fillColor=none;" vertex="1" parent="1">
          <mxGeometry x="15" y="428" width="30" height="30" as="geometry" />
        </mxCell>
        <mxCell id="lddae44WPFYO3zYL8UWN-36" value="1..N" style="text;html=1;align=center;verticalAlign=middle;resizable=0;points=[];autosize=1;strokeColor=none;fillColor=none;" vertex="1" parent="1">
          <mxGeometry x="105" y="398" width="50" height="30" as="geometry" />
        </mxCell>
        <mxCell id="lddae44WPFYO3zYL8UWN-39" style="edgeStyle=orthogonalEdgeStyle;rounded=0;orthogonalLoop=1;jettySize=auto;html=1;exitX=0.5;exitY=1;exitDx=0;exitDy=0;entryX=0.5;entryY=0;entryDx=0;entryDy=0;" edge="1" parent="1" source="lddae44WPFYO3zYL8UWN-37" target="lddae44WPFYO3zYL8UWN-3">
          <mxGeometry relative="1" as="geometry" />
        </mxCell>
        <mxCell id="lddae44WPFYO3zYL8UWN-37" value="" style="rhombus;" vertex="1" parent="1">
          <mxGeometry x="520" y="150" width="30" height="30" as="geometry" />
        </mxCell>
        <mxCell id="lddae44WPFYO3zYL8UWN-40" value="Realiza" style="text;html=1;align=center;verticalAlign=middle;resizable=0;points=[];autosize=1;strokeColor=none;fillColor=none;" vertex="1" parent="1">
          <mxGeometry x="570" y="150" width="60" height="30" as="geometry" />
        </mxCell>
        <mxCell id="lddae44WPFYO3zYL8UWN-41" value="1..N" style="text;html=1;align=center;verticalAlign=middle;resizable=0;points=[];autosize=1;strokeColor=none;fillColor=none;" vertex="1" parent="1">
          <mxGeometry x="465" y="198" width="50" height="30" as="geometry" />
        </mxCell>
        <mxCell id="lddae44WPFYO3zYL8UWN-42" value="1" style="text;html=1;align=center;verticalAlign=middle;resizable=0;points=[];autosize=1;strokeColor=none;fillColor=none;" vertex="1" parent="1">
          <mxGeometry x="485" y="98" width="30" height="30" as="geometry" />
        </mxCell>
        <mxCell id="lddae44WPFYO3zYL8UWN-45" style="edgeStyle=orthogonalEdgeStyle;rounded=0;orthogonalLoop=1;jettySize=auto;html=1;exitX=1;exitY=0.5;exitDx=0;exitDy=0;entryX=0;entryY=0.5;entryDx=0;entryDy=0;" edge="1" parent="1" source="lddae44WPFYO3zYL8UWN-43" target="lddae44WPFYO3zYL8UWN-6">
          <mxGeometry relative="1" as="geometry" />
        </mxCell>
        <mxCell id="lddae44WPFYO3zYL8UWN-43" value="" style="rhombus;" vertex="1" parent="1">
          <mxGeometry x="650" y="240" width="30" height="30" as="geometry" />
        </mxCell>
        <mxCell id="lddae44WPFYO3zYL8UWN-46" value="Genera" style="text;html=1;align=center;verticalAlign=middle;resizable=0;points=[];autosize=1;strokeColor=none;fillColor=none;" vertex="1" parent="1">
          <mxGeometry x="630" y="278" width="60" height="30" as="geometry" />
        </mxCell>
        <mxCell id="lddae44WPFYO3zYL8UWN-47" value="1" style="text;html=1;align=center;verticalAlign=middle;resizable=0;points=[];autosize=1;strokeColor=none;fillColor=none;" vertex="1" parent="1">
          <mxGeometry x="705" y="218" width="30" height="30" as="geometry" />
        </mxCell>
        <mxCell id="lddae44WPFYO3zYL8UWN-48" value="1" style="text;html=1;align=center;verticalAlign=middle;resizable=0;points=[];autosize=1;strokeColor=none;fillColor=none;" vertex="1" parent="1">
          <mxGeometry x="585" y="218" width="30" height="30" as="geometry" />
        </mxCell>
        <mxCell id="lddae44WPFYO3zYL8UWN-51" style="edgeStyle=orthogonalEdgeStyle;rounded=0;orthogonalLoop=1;jettySize=auto;html=1;entryX=0.5;entryY=1;entryDx=0;entryDy=0;" edge="1" parent="1" source="lddae44WPFYO3zYL8UWN-49" target="lddae44WPFYO3zYL8UWN-3">
          <mxGeometry relative="1" as="geometry" />
        </mxCell>
        <mxCell id="lddae44WPFYO3zYL8UWN-49" value="" style="rhombus;" vertex="1" parent="1">
          <mxGeometry x="520" y="410" width="30" height="30" as="geometry" />
        </mxCell>
        <mxCell id="lddae44WPFYO3zYL8UWN-52" value="Participan" style="text;html=1;align=center;verticalAlign=middle;resizable=0;points=[];autosize=1;strokeColor=none;fillColor=none;" vertex="1" parent="1">
          <mxGeometry x="530" y="438" width="80" height="30" as="geometry" />
        </mxCell>
        <mxCell id="lddae44WPFYO3zYL8UWN-53" value="1..N" style="text;html=1;align=center;verticalAlign=middle;resizable=0;points=[];autosize=1;strokeColor=none;fillColor=none;" vertex="1" parent="1">
          <mxGeometry x="465" y="288" width="50" height="30" as="geometry" />
        </mxCell>
        <mxCell id="lddae44WPFYO3zYL8UWN-54" value="1..N" style="text;html=1;align=center;verticalAlign=middle;resizable=0;points=[];autosize=1;strokeColor=none;fillColor=none;" vertex="1" parent="1">
          <mxGeometry x="260" y="428" width="50" height="30" as="geometry" />
        </mxCell>
        <mxCell id="lddae44WPFYO3zYL8UWN-79" style="edgeStyle=orthogonalEdgeStyle;rounded=0;orthogonalLoop=1;jettySize=auto;html=1;entryX=0;entryY=0.5;entryDx=0;entryDy=0;" edge="1" parent="1" source="lddae44WPFYO3zYL8UWN-55" target="lddae44WPFYO3zYL8UWN-78">
          <mxGeometry relative="1" as="geometry" />
        </mxCell>
        <mxCell id="lddae44WPFYO3zYL8UWN-55" value="Cliente" style="html=1;whiteSpace=wrap;" vertex="1" parent="1">
          <mxGeometry x="740" y="40" width="110" height="50" as="geometry" />
        </mxCell>
        <mxCell id="lddae44WPFYO3zYL8UWN-62" value="Categoria de Factura" style="html=1;whiteSpace=wrap;" vertex="1" parent="1">
          <mxGeometry x="740" y="390" width="110" height="50" as="geometry" />
        </mxCell>
        <mxCell id="lddae44WPFYO3zYL8UWN-66" style="edgeStyle=orthogonalEdgeStyle;rounded=0;orthogonalLoop=1;jettySize=auto;html=1;entryX=0.5;entryY=0;entryDx=0;entryDy=0;" edge="1" parent="1" source="lddae44WPFYO3zYL8UWN-64" target="lddae44WPFYO3zYL8UWN-65">
          <mxGeometry relative="1" as="geometry" />
        </mxCell>
        <mxCell id="lddae44WPFYO3zYL8UWN-64" value="Categoria de cliente" style="html=1;whiteSpace=wrap;" vertex="1" parent="1">
          <mxGeometry x="740" y="-110" width="110" height="50" as="geometry" />
        </mxCell>
        <mxCell id="lddae44WPFYO3zYL8UWN-67" style="edgeStyle=orthogonalEdgeStyle;rounded=0;orthogonalLoop=1;jettySize=auto;html=1;" edge="1" parent="1" source="lddae44WPFYO3zYL8UWN-65" target="lddae44WPFYO3zYL8UWN-55">
          <mxGeometry relative="1" as="geometry" />
        </mxCell>
        <mxCell id="lddae44WPFYO3zYL8UWN-65" value="" style="rhombus;" vertex="1" parent="1">
          <mxGeometry x="780" y="-20" width="30" height="30" as="geometry" />
        </mxCell>
        <mxCell id="lddae44WPFYO3zYL8UWN-68" value="N" style="text;html=1;align=center;verticalAlign=middle;resizable=0;points=[];autosize=1;strokeColor=none;fillColor=none;" vertex="1" parent="1">
          <mxGeometry x="805" y="18" width="30" height="30" as="geometry" />
        </mxCell>
        <mxCell id="lddae44WPFYO3zYL8UWN-69" value="1" style="text;html=1;align=center;verticalAlign=middle;resizable=0;points=[];autosize=1;strokeColor=none;fillColor=none;" vertex="1" parent="1">
          <mxGeometry x="805" y="-60" width="30" height="30" as="geometry" />
        </mxCell>
        <mxCell id="lddae44WPFYO3zYL8UWN-70" value="Pertenece" style="text;html=1;align=center;verticalAlign=middle;resizable=0;points=[];autosize=1;strokeColor=none;fillColor=none;" vertex="1" parent="1">
          <mxGeometry x="690" y="-22" width="80" height="30" as="geometry" />
        </mxCell>
        <mxCell id="lddae44WPFYO3zYL8UWN-73" style="edgeStyle=orthogonalEdgeStyle;rounded=0;orthogonalLoop=1;jettySize=auto;html=1;" edge="1" parent="1" source="lddae44WPFYO3zYL8UWN-71" target="lddae44WPFYO3zYL8UWN-62">
          <mxGeometry relative="1" as="geometry" />
        </mxCell>
        <mxCell id="lddae44WPFYO3zYL8UWN-71" value="" style="rhombus;" vertex="1" parent="1">
          <mxGeometry x="780" y="320" width="30" height="30" as="geometry" />
        </mxCell>
        <mxCell id="lddae44WPFYO3zYL8UWN-74" value="Pertence" style="text;html=1;align=center;verticalAlign=middle;resizable=0;points=[];autosize=1;strokeColor=none;fillColor=none;" vertex="1" parent="1">
          <mxGeometry x="820" y="320" width="70" height="30" as="geometry" />
        </mxCell>
        <mxCell id="lddae44WPFYO3zYL8UWN-75" value="N" style="text;html=1;align=center;verticalAlign=middle;resizable=0;points=[];autosize=1;strokeColor=none;fillColor=none;" vertex="1" parent="1">
          <mxGeometry x="755" y="278" width="30" height="30" as="geometry" />
        </mxCell>
        <mxCell id="lddae44WPFYO3zYL8UWN-76" value="1" style="text;html=1;align=center;verticalAlign=middle;resizable=0;points=[];autosize=1;strokeColor=none;fillColor=none;" vertex="1" parent="1">
          <mxGeometry x="755" y="358" width="30" height="30" as="geometry" />
        </mxCell>
        <mxCell id="lddae44WPFYO3zYL8UWN-85" style="edgeStyle=orthogonalEdgeStyle;rounded=0;orthogonalLoop=1;jettySize=auto;html=1;entryX=0.5;entryY=0;entryDx=0;entryDy=0;" edge="1" parent="1" source="lddae44WPFYO3zYL8UWN-77" target="lddae44WPFYO3zYL8UWN-84">
          <mxGeometry relative="1" as="geometry" />
        </mxCell>
        <mxCell id="lddae44WPFYO3zYL8UWN-92" style="edgeStyle=orthogonalEdgeStyle;rounded=0;orthogonalLoop=1;jettySize=auto;html=1;entryX=0;entryY=0.5;entryDx=0;entryDy=0;" edge="1" parent="1" source="lddae44WPFYO3zYL8UWN-77" target="lddae44WPFYO3zYL8UWN-90">
          <mxGeometry relative="1" as="geometry" />
        </mxCell>
        <mxCell id="lddae44WPFYO3zYL8UWN-77" value="Pago" style="html=1;whiteSpace=wrap;" vertex="1" parent="1">
          <mxGeometry x="920" y="138" width="110" height="50" as="geometry" />
        </mxCell>
        <mxCell id="lddae44WPFYO3zYL8UWN-80" style="edgeStyle=orthogonalEdgeStyle;rounded=0;orthogonalLoop=1;jettySize=auto;html=1;entryX=0.5;entryY=0;entryDx=0;entryDy=0;" edge="1" parent="1" source="lddae44WPFYO3zYL8UWN-78" target="lddae44WPFYO3zYL8UWN-77">
          <mxGeometry relative="1" as="geometry" />
        </mxCell>
        <mxCell id="lddae44WPFYO3zYL8UWN-78" value="" style="rhombus;" vertex="1" parent="1">
          <mxGeometry x="960" y="50" width="30" height="30" as="geometry" />
        </mxCell>
        <mxCell id="lddae44WPFYO3zYL8UWN-81" value="Realiza" style="text;html=1;align=center;verticalAlign=middle;resizable=0;points=[];autosize=1;strokeColor=none;fillColor=none;" vertex="1" parent="1">
          <mxGeometry x="950" y="8" width="60" height="30" as="geometry" />
        </mxCell>
        <mxCell id="lddae44WPFYO3zYL8UWN-82" value="1...N" style="text;html=1;align=center;verticalAlign=middle;resizable=0;points=[];autosize=1;strokeColor=none;fillColor=none;" vertex="1" parent="1">
          <mxGeometry x="975" y="108" width="50" height="30" as="geometry" />
        </mxCell>
        <mxCell id="lddae44WPFYO3zYL8UWN-83" value="1" style="text;html=1;align=center;verticalAlign=middle;resizable=0;points=[];autosize=1;strokeColor=none;fillColor=none;" vertex="1" parent="1">
          <mxGeometry x="855" y="78" width="30" height="30" as="geometry" />
        </mxCell>
        <mxCell id="lddae44WPFYO3zYL8UWN-86" style="edgeStyle=orthogonalEdgeStyle;rounded=0;orthogonalLoop=1;jettySize=auto;html=1;entryX=1;entryY=0.5;entryDx=0;entryDy=0;" edge="1" parent="1" source="lddae44WPFYO3zYL8UWN-84" target="lddae44WPFYO3zYL8UWN-6">
          <mxGeometry relative="1" as="geometry" />
        </mxCell>
        <mxCell id="lddae44WPFYO3zYL8UWN-84" value="" style="rhombus;" vertex="1" parent="1">
          <mxGeometry x="960" y="240" width="30" height="30" as="geometry" />
        </mxCell>
        <mxCell id="lddae44WPFYO3zYL8UWN-87" value="1" style="text;html=1;align=center;verticalAlign=middle;resizable=0;points=[];autosize=1;strokeColor=none;fillColor=none;" vertex="1" parent="1">
          <mxGeometry x="980" y="188" width="30" height="30" as="geometry" />
        </mxCell>
        <mxCell id="lddae44WPFYO3zYL8UWN-88" value="1" style="text;html=1;align=center;verticalAlign=middle;resizable=0;points=[];autosize=1;strokeColor=none;fillColor=none;" vertex="1" parent="1">
          <mxGeometry x="845" y="258" width="30" height="30" as="geometry" />
        </mxCell>
        <mxCell id="lddae44WPFYO3zYL8UWN-89" value="Metodo de pago" style="html=1;whiteSpace=wrap;" vertex="1" parent="1">
          <mxGeometry x="1120" y="138" width="110" height="50" as="geometry" />
        </mxCell>
        <mxCell id="lddae44WPFYO3zYL8UWN-93" style="edgeStyle=orthogonalEdgeStyle;rounded=0;orthogonalLoop=1;jettySize=auto;html=1;entryX=0;entryY=0.5;entryDx=0;entryDy=0;" edge="1" parent="1" source="lddae44WPFYO3zYL8UWN-90" target="lddae44WPFYO3zYL8UWN-89">
          <mxGeometry relative="1" as="geometry" />
        </mxCell>
        <mxCell id="lddae44WPFYO3zYL8UWN-90" value="" style="rhombus;" vertex="1" parent="1">
          <mxGeometry x="1060" y="148" width="30" height="30" as="geometry" />
        </mxCell>
        <mxCell id="lddae44WPFYO3zYL8UWN-94" value="Mediante" style="text;html=1;align=center;verticalAlign=middle;resizable=0;points=[];autosize=1;strokeColor=none;fillColor=none;" vertex="1" parent="1">
          <mxGeometry x="1035" y="98" width="70" height="30" as="geometry" />
        </mxCell>
        <mxCell id="lddae44WPFYO3zYL8UWN-95" value="1" style="text;html=1;align=center;verticalAlign=middle;resizable=0;points=[];autosize=1;strokeColor=none;fillColor=none;" vertex="1" parent="1">
          <mxGeometry x="1090" y="168" width="30" height="30" as="geometry" />
        </mxCell>
        <mxCell id="lddae44WPFYO3zYL8UWN-96" value="N" style="text;html=1;align=center;verticalAlign=middle;resizable=0;points=[];autosize=1;strokeColor=none;fillColor=none;" vertex="1" parent="1">
          <mxGeometry x="1030" y="168" width="30" height="30" as="geometry" />
        </mxCell>
        <mxCell id="lddae44WPFYO3zYL8UWN-97" value="Corresponde" style="text;html=1;align=center;verticalAlign=middle;resizable=0;points=[];autosize=1;strokeColor=none;fillColor=none;" vertex="1" parent="1">
          <mxGeometry x="1000" y="238" width="90" height="30" as="geometry" />
        </mxCell>
      </root>
    </mxGraphModel>
  </diagram>
</mxfile>
